<?xml version="1.0" encoding="UTF-8"?>
<svg xmlns="http://www.w3.org/2000/svg" xmlns:xlink="http://www.w3.org/1999/xlink" width="95px" height="50px" viewBox="0 0 95 50" version="1.1">
<g id="surface1">
<path style=" stroke:none;fill-rule:evenodd;fill:rgb(53.72549%,57.647059%,74.509804%);fill-opacity:1;" d="M 95 24.855469 C 95 11.128906 73.734375 0 47.5 0 C 21.265625 0 0 11.128906 0 24.855469 C 0 38.582031 21.265625 49.707031 47.5 49.707031 C 73.734375 49.707031 95 38.582031 95 24.855469 Z M 95 24.855469 "/>
<path style=" stroke:none;fill-rule:evenodd;fill:rgb(13.72549%,14.509804%,19.215686%);fill-opacity:1;" d="M 13.339844 39.570312 L 18.542969 13.082031 L 30.582031 13.082031 C 35.789062 13.40625 38.390625 16.023438 38.390625 20.601562 C 38.390625 28.453125 32.207031 33.03125 26.675781 32.703125 L 20.820312 32.703125 L 19.519531 39.570312 Z M 22.125 27.796875 L 23.75 17.988281 L 27.980469 17.988281 C 30.257812 17.988281 31.882812 18.96875 31.882812 20.929688 C 31.558594 26.488281 28.957031 27.46875 26.027344 27.796875 Z M 37.179688 32.703125 L 42.386719 6.214844 L 48.566406 6.214844 L 47.265625 13.082031 L 53.121094 13.082031 C 58.328125 13.40625 60.28125 16.023438 59.628906 19.292969 L 57.351562 32.703125 L 50.84375 32.703125 L 53.121094 20.601562 C 53.449219 18.96875 53.449219 17.988281 51.171875 17.988281 L 46.289062 17.988281 L 43.363281 32.703125 Z M 56.933594 39.570312 L 62.140625 13.082031 L 74.179688 13.082031 C 79.382812 13.40625 81.988281 16.023438 81.988281 20.601562 C 81.988281 28.453125 75.804688 33.03125 70.273438 32.703125 L 64.417969 32.703125 L 63.117188 39.570312 Z M 65.71875 27.796875 L 67.347656 17.988281 L 71.574219 17.988281 C 73.851562 17.988281 75.480469 18.96875 75.480469 20.929688 C 75.152344 26.488281 72.550781 27.46875 69.625 27.796875 Z M 65.71875 27.796875 "/>
</g>
</svg>
